<mxfile host="65bd71144e">
    <diagram id="lmD70vtD9MH0eapjYY8y" name="Arquitetura em camadas">
        <mxGraphModel dx="661" dy="682" grid="1" gridSize="10" guides="1" tooltips="1" connect="1" arrows="1" fold="1" page="1" pageScale="1" pageWidth="827" pageHeight="1169" math="0" shadow="0">
            <root>
                <mxCell id="0"/>
                <mxCell id="1" parent="0"/>
                <mxCell id="15" value="ecommerce-node-api (back-end)" style="verticalAlign=top;align=left;spacingTop=8;spacingLeft=2;spacingRight=12;shape=cube;size=10;direction=south;fontStyle=4;html=1;" vertex="1" parent="1">
                    <mxGeometry x="175" y="550" width="440" height="370" as="geometry"/>
                </mxCell>
                <mxCell id="17" value="ecommerce-web-app (front-end)" style="verticalAlign=top;align=left;spacingTop=8;spacingLeft=2;spacingRight=12;shape=cube;size=10;direction=south;fontStyle=4;html=1;" vertex="1" parent="1">
                    <mxGeometry x="170" y="10" width="440" height="470" as="geometry"/>
                </mxCell>
                <mxCell id="18" value="Database" style="strokeWidth=2;html=1;shape=mxgraph.flowchart.database;whiteSpace=wrap;" vertex="1" parent="1">
                    <mxGeometry x="270" y="960" width="230" height="90" as="geometry"/>
                </mxCell>
                <mxCell id="19" value="" style="rounded=1;whiteSpace=wrap;html=1;fillColor=#CC0000;" vertex="1" parent="1">
                    <mxGeometry x="305" y="690" width="290" height="70" as="geometry"/>
                </mxCell>
                <mxCell id="20" value="camada de dominio" style="text;html=1;strokeColor=none;fillColor=#CC0000;align=center;verticalAlign=middle;whiteSpace=wrap;rounded=0;" vertex="1" parent="1">
                    <mxGeometry x="310" y="700" width="120" height="30" as="geometry"/>
                </mxCell>
                <mxCell id="28" style="edgeStyle=none;html=1;exitX=0.25;exitY=1;exitDx=0;exitDy=0;entryX=0.034;entryY=0.021;entryDx=0;entryDy=0;entryPerimeter=0;" edge="1" parent="1" source="22" target="19">
                    <mxGeometry relative="1" as="geometry"/>
                </mxCell>
                <mxCell id="22" value="" style="rounded=1;whiteSpace=wrap;html=1;fillColor=#CCCC00;" vertex="1" parent="1">
                    <mxGeometry x="185" y="600" width="410" height="70" as="geometry"/>
                </mxCell>
                <mxCell id="23" value="camada de aplicação" style="text;html=1;strokeColor=none;fillColor=none;align=center;verticalAlign=middle;whiteSpace=wrap;rounded=0;" vertex="1" parent="1">
                    <mxGeometry x="190" y="600" width="120" height="30" as="geometry"/>
                </mxCell>
                <mxCell id="29" style="edgeStyle=none;html=1;exitX=0.5;exitY=0;exitDx=0;exitDy=0;entryX=0.25;entryY=1;entryDx=0;entryDy=0;" edge="1" parent="1" source="24" target="19">
                    <mxGeometry relative="1" as="geometry"/>
                </mxCell>
                <mxCell id="24" value="" style="rounded=1;whiteSpace=wrap;html=1;fillColor=#00CC00;" vertex="1" parent="1">
                    <mxGeometry x="190" y="790" width="410" height="70" as="geometry"/>
                </mxCell>
                <mxCell id="25" value="camada de infraestrutura" style="text;html=1;strokeColor=none;fillColor=none;align=center;verticalAlign=middle;whiteSpace=wrap;rounded=0;" vertex="1" parent="1">
                    <mxGeometry x="190" y="800" width="165" height="30" as="geometry"/>
                </mxCell>
                <mxCell id="26" value="" style="rounded=1;whiteSpace=wrap;html=1;fillColor=#FF3399;" vertex="1" parent="1">
                    <mxGeometry x="190" y="50" width="410" height="70" as="geometry"/>
                </mxCell>
                <mxCell id="27" value="camada de apresentação" style="text;html=1;strokeColor=none;fillColor=none;align=center;verticalAlign=middle;whiteSpace=wrap;rounded=0;" vertex="1" parent="1">
                    <mxGeometry x="450" y="60" width="140" height="30" as="geometry"/>
                </mxCell>
                <mxCell id="31" style="edgeStyle=none;html=1;exitX=0.154;exitY=-0.007;exitDx=0;exitDy=0;exitPerimeter=0;entryX=0.049;entryY=0.993;entryDx=0;entryDy=0;entryPerimeter=0;" edge="1" parent="1" source="24" target="22">
                    <mxGeometry relative="1" as="geometry">
                        <mxPoint x="203.03999999999996" y="654.51" as="sourcePoint"/>
                        <mxPoint x="260" y="740" as="targetPoint"/>
                        <Array as="points"/>
                    </mxGeometry>
                </mxCell>
                <mxCell id="32" value="Modulos/subdominio" style="shape=umlFrame;whiteSpace=wrap;html=1;fillColor=#0000CC;width=120;height=30;dashed=1;" vertex="1" parent="1">
                    <mxGeometry x="440" y="570" width="150" height="330" as="geometry"/>
                </mxCell>
                <mxCell id="33" value="" style="rounded=0;whiteSpace=wrap;html=1;fillColor=none;strokeColor=#00B336;strokeWidth=2;dashed=1;" vertex="1" parent="1">
                    <mxGeometry x="450" y="700" width="60" height="20" as="geometry"/>
                </mxCell>
                <mxCell id="34" value="" style="rounded=0;whiteSpace=wrap;html=1;fillColor=none;strokeColor=#00B336;strokeWidth=2;dashed=1;" vertex="1" parent="1">
                    <mxGeometry x="520" y="700" width="60" height="20" as="geometry"/>
                </mxCell>
                <mxCell id="35" value="" style="rounded=0;whiteSpace=wrap;html=1;fillColor=none;strokeColor=#00B336;strokeWidth=2;dashed=1;" vertex="1" parent="1">
                    <mxGeometry x="450" y="730" width="60" height="20" as="geometry"/>
                </mxCell>
                <mxCell id="36" value="" style="rounded=0;whiteSpace=wrap;html=1;fillColor=none;strokeColor=#00B336;strokeWidth=2;dashed=1;" vertex="1" parent="1">
                    <mxGeometry x="520" y="730" width="60" height="20" as="geometry"/>
                </mxCell>
                <mxCell id="37" value="" style="rounded=0;whiteSpace=wrap;html=1;fillColor=none;strokeColor=#00B336;strokeWidth=2;dashed=1;" vertex="1" parent="1">
                    <mxGeometry x="450" y="800" width="60" height="20" as="geometry"/>
                </mxCell>
            </root>
        </mxGraphModel>
    </diagram>
</mxfile>